Coordinates
version=1
nRows=5
nColumns=40
inDegrees=yes

Units are S.I. units (second, meters, Newtons, ...)
If the header above contains a line with 'inDegrees', this indicates whether rotational values are in degrees (yes) or radians (no).

endheader
time	pelvis_tilt	pelvis_list	pelvis_rotation	pelvis_tx	pelvis_ty	pelvis_tz	hip_flexion_r	hip_adduction_r	hip_rotation_r	knee_angle_r	knee_angle_r_beta	ankle_angle_r	subtalar_angle_r	mtp_angle_r	hip_flexion_l	hip_adduction_l	hip_rotation_l	knee_angle_l	knee_angle_l_beta	ankle_angle_l	subtalar_angle_l	mtp_angle_l	lumbar_extension	lumbar_bending	lumbar_rotation	arm_flex_r	arm_add_r	arm_rot_r	elbow_flex_r	pro_sup_r	wrist_flex_r	wrist_dev_r	arm_flex_l	arm_add_l	arm_rot_l	elbow_flex_l	pro_sup_l	wrist_flex_l	wrist_dev_l
      3.55000000	     15.25458265	     -5.41231358	     -3.51445839	     -0.32032603	      0.88161335	     -1.02994828	     65.61660353	      2.86965925	     -8.84743159	     34.19605700	      0.59683379	      1.63716080	      0.00000000	      0.00000000	     24.62641484	     -7.14810523	     -9.77763027	     82.64321645	      1.44239623	     33.92100840	      0.00000000	      0.00000000	    -22.44499128	      0.36338910	      1.46402321	     89.92756506	     -5.89447926	     31.70875138	     33.01703250	     80.94486079	      0.00000000	      0.00000000	     89.94528404	    -18.74314306	     29.53145503	     38.98733284	     80.64554800	      0.00000000	      0.00000000
      3.55500000	     15.25613896	     -5.36780327	     -3.51293195	     -0.32031165	      0.88125253	     -1.03002310	     65.82265842	      2.77260557	     -8.99561427	     34.42398824	      0.60081194	      1.85281230	      0.00000000	      0.00000000	     24.66168236	     -7.06542310	     -9.76653008	     82.70100941	      1.44340491	     34.04041306	      0.00000000	      0.00000000	    -22.49912010	      0.30223426	      1.53766330	     89.92759666	     -6.13941775	     31.46374957	     33.25186444	     85.34636990	      0.00000000	      0.00000000	     89.94546540	    -18.74762864	     29.11491377	     39.23598373	     84.88136666	      0.00000000	      0.00000000
      3.56000000	     15.15059417	     -5.46990235	     -3.50013150	     -0.32030147	      0.88049376	     -1.02983397	     66.10882281	      2.79446477	     -9.15598428	     34.55611229	      0.60311794	      1.81482954	      0.00000000	      0.00000000	     24.87100255	     -7.17822741	     -9.66115319	     82.87621287	      1.44646279	     34.20126605	      0.00000000	      0.00000000	    -22.41810547	      0.40843606	      1.59025402	     89.92832266	     -6.19763311	     31.86697296	     33.35031442	     83.53043769	      0.00000000	      0.00000000	     89.94587757	    -18.76064086	     29.56331076	     39.29984146	     83.07468753	      0.00000000	      0.00000000
      3.56500000	     15.27219551	     -5.29561960	     -3.70739535	     -0.32029293	      0.88045353	     -1.02940802	     66.15221341	      2.89084889	     -8.94418618	     34.65893518	      0.60491253	      1.92878605	      0.00000000	      0.00000000	     24.65725836	     -7.08063313	     -9.93374165	     82.83421474	      1.44572978	     34.15539012	      0.00000000	      0.00000000	    -22.59966562	      0.13947180	      1.70392925	     89.92819246	     -6.06485699	     31.22027340	     33.30790971	     85.37821942	      0.00000000	      0.00000000	     89.94598028	    -18.76290123	     28.97699495	     39.36144007	     84.86316068	      0.00000000	      0.00000000
      3.57000000	     15.20034044	     -5.29901749	     -3.66433892	     -0.32031413	      0.87968834	     -1.02939618	     66.43189952	      2.79730920	     -9.12240393	     34.83260774	      0.60794369	      2.02709192	      0.00000000	      0.00000000	     24.83450213	     -7.04714186	     -9.84046132	     82.98833107	      1.44841962	     34.31032572	      0.00000000	      0.00000000	    -22.55542490	      0.16210520	      1.66372635	     89.92878531	     -6.09043407	     31.56807441	     33.41999431	     83.43131574	      0.00000000	      0.00000000	     89.94640862	    -18.76747639	     29.36402206	     39.42518938	     82.94207561	      0.00000000	      0.00000000
